<?xml version="1.0" encoding="UTF-8"?>
<svg id="svg1124" xmlns="http://www.w3.org/2000/svg" xmlns:xlink="http://www.w3.org/1999/xlink" viewBox="0 0 277.41 277.41">
  <defs>
    <style>
      .cls-1 {
        mask: url(#mask);
      }

      .cls-2 {
        fill: none;
        stroke: #000;
        stroke-linecap: round;
        stroke-linejoin: round;
        stroke-width: 10px;
      }

      .cls-3 {
        fill: #fff;
      }

      .cls-4 {
        fill: #62248c;
      }
    </style>
    <mask id="mask" x="0" y="0" width="277.41" height="277.41" maskUnits="userSpaceOnUse">
      <g>
        <rect class="cls-3" x="0" width="277.41" height="277.41"/>
        <g>
          <path class="cls-2" d="M210.84,141.18c-15.06,16.73-38.03,21.49-57.6,14.27l-68.82,68.82-27.8-.64c-1.51-.03-2.73-1.25-2.76-2.76l-.74-31.92c-.04-1.61,1.28-2.93,2.89-2.89l7.68.18c1.61.04,2.93-1.28,2.89-2.89l-.18-7.67c-.04-1.61,1.28-2.93,2.89-2.89l7.68.18c1.61.04,2.93-1.28,2.89-2.89l-.18-7.67c-.04-1.61,1.28-2.93,2.89-2.89l7.67.18c1.61.04,2.93-1.28,2.89-2.89l-.18-7.67c-.04-1.61,1.28-2.93,2.89-2.89l9.43.22c.77.02,14.84-13.6,15.39-14.15l1.98-1.98c.81-.81,1.07-2.04.61-3.09-8.51-19.35-4.85-42.77,10.99-58.61,21.2-21.2,55.96-20.59,76.39,1.83,18.13,19.9,18.23,50.73.23,70.74Z"/>
          <line class="cls-2" x1="128.27" y1="149.21" x2="118.36" y2="159.12"/>
          <line class="cls-2" x1="74.9" y1="202.58" x2="105.51" y2="171.97"/>
          <path class="cls-2" d="M200.35,112.88c1.36,1.36,3.68.68,4.11-1.2,2.38-10.45-.51-21.86-8.65-30-8.14-8.14-19.55-11.02-30-8.65-1.88.43-2.57,2.74-1.2,4.11l35.75,35.75Z"/>
        </g>
      </g>
    </mask>
  </defs>
  <g class="cls-1">
    <circle class="cls-4" cx="138.7" cy="138.7" r="138.7"/>
  </g>
</svg>