<?xml version="1.0" encoding="UTF-8"?>
<svg id="svg1124" xmlns="http://www.w3.org/2000/svg" xmlns:xlink="http://www.w3.org/1999/xlink" viewBox="0 0 277.41 277.41">
  <defs>
    <style>
      .cls-1 {
        mask: url(#mask);
      }

      .cls-2 {
        fill: #fff;
      }

      .cls-3 {
        stroke: #62248c;
        stroke-linecap: round;
        stroke-linejoin: round;
        stroke-width: 10px;
      }

      .cls-3, .cls-4 {
        fill: none;
      }

      .cls-4 {
        stroke: #000;
        stroke-miterlimit: 10;
        stroke-width: 29px;
      }
    </style>
    <mask id="mask" x="9.3" y="7.55" width="258.8" height="277.58" maskUnits="userSpaceOnUse">
      <g>
        <rect class="cls-2" x="9.3" y="7.72" width="258.8" height="277.41"/>
        <g>
          <path class="cls-4" d="M194.74,48.35l-90.78,97.31c-.25.27-.45.58-.59.92l-15.97,39.26c-1.02,2.5,1.35,5.04,3.68,3.95l36.63-17.12c.32-.15.61-.36.86-.63l90.78-97.31c1.09-1.17,1.09-3.07,0-4.24l-20.66-22.14c-1.09-1.17-2.87-1.17-3.96,0Z"/>
          <path class="cls-4" d="M218.46,22.92l-9.63,10.33c-1.09,1.17-1.09,3.07,0,4.24l20.66,22.14c1.09,1.17,2.87,1.17,3.96,0l9.63-10.33c1.09-1.17,1.09-3.07,0-4.24l-20.66-22.14c-1.09-1.17-2.87-1.17-3.96,0Z"/>
        </g>
      </g>
    </mask>
  </defs>
  <g>
    <path class="cls-3" d="M198.77,48.35l-97.31,97.31c-.27.27-.48.58-.63.92l-17.12,39.26c-1.09,2.5,1.45,5.04,3.95,3.95l39.26-17.12c.34-.15.66-.36.92-.63l97.31-97.31c1.17-1.17,1.17-3.07,0-4.24l-22.14-22.14c-1.17-1.17-3.07-1.17-4.24,0Z"/>
    <rect class="cls-3" x="221.92" y="22.62" width="20.61" height="37.32" rx="3" ry="3" transform="translate(38.83 176.3) rotate(-45)"/>
  </g>
  <g class="cls-1">
    <g>
      <path class="cls-3" d="M238.73,60.48v121.99l-67.44,52.89H41.47c-1.55,0-2.8-1.34-2.8-3V60.48c0-1.66,1.25-3,2.8-3h194.46c1.55,0,2.8,1.34,2.8,3Z"/>
      <path class="cls-3" d="M238.73,182.47l-67.44,52.89v-49.17c0-1.64,1.24-2.98,2.77-3l64.67-.72Z"/>
    </g>
  </g>
</svg>