<?xml version="1.0" encoding="UTF-8"?>
<svg id="svg1124" xmlns="http://www.w3.org/2000/svg" viewBox="0 0 277.41 277.41">
  <defs>
    <style>
      .cls-1 {
        fill: none;
        stroke: #62248c;
        stroke-linecap: round;
        stroke-linejoin: round;
        stroke-width: 10px;
      }
    </style>
  </defs>
  <rect class="cls-1" x="53.95" y="38.84" width="148.79" height="198.25" rx="3" ry="3"/>
  <path class="cls-1" d="M202.73,58.39h17.73c1.66,0,3,1.34,3,3v192.25c0,1.66-1.34,3-3,3H77.67c-1.65,0-3-1.34-3-3v-16.55"/>
  <line class="cls-1" x1="83.55" y1="56.91" x2="83.55" y2="20.77"/>
  <line class="cls-1" x1="113.41" y1="56.91" x2="113.41" y2="20.77"/>
  <line class="cls-1" x1="143.27" y1="56.91" x2="143.27" y2="20.77"/>
  <line class="cls-1" x1="173.13" y1="56.91" x2="173.13" y2="20.77"/>
  <line class="cls-1" x1="85.28" y1="93.46" x2="174.85" y2="93.46"/>
  <line class="cls-1" x1="85.28" y1="126.61" x2="174.85" y2="126.61"/>
  <line class="cls-1" x1="85.28" y1="159.76" x2="174.85" y2="159.76"/>
  <line class="cls-1" x1="85.28" y1="192.91" x2="174.85" y2="192.91"/>
</svg>