<?xml version="1.0" encoding="UTF-8"?>
<svg id="svg1124" xmlns="http://www.w3.org/2000/svg" viewBox="0 0 277.41 277.41">
  <defs>
    <style>
      .cls-1 {
        fill: none;
        stroke: #62248c;
        stroke-linecap: round;
        stroke-linejoin: round;
        stroke-width: 10px;
      }
    </style>
  </defs>
  <path class="cls-1" d="M229.11,139.8c-18.87,20.97-47.66,26.94-72.18,17.88l-86.24,86.24-34.84-.81c-1.89-.04-3.42-1.57-3.46-3.46l-.93-40c-.05-2.02,1.6-3.67,3.62-3.62l9.62.22c2.02.05,3.67-1.6,3.62-3.62l-.23-9.61c-.05-2.02,1.6-3.67,3.62-3.62l9.62.22c2.02.05,3.67-1.6,3.62-3.62l-.23-9.61c-.05-2.02,1.6-3.67,3.62-3.62l9.61.23c2.02.05,3.67-1.6,3.62-3.62l-.23-9.61c-.05-2.02,1.6-3.67,3.62-3.62l11.81.27c.97.02,18.6-17.05,19.28-17.73l2.48-2.48c1.02-1.02,1.34-2.56.76-3.88-10.67-24.24-6.08-53.59,13.78-73.45,26.57-26.57,70.13-25.8,95.72,2.29,22.72,24.94,22.85,63.58.28,88.65Z"/>
  <line class="cls-1" x1="125.63" y1="149.86" x2="113.21" y2="162.29"/>
  <line class="cls-1" x1="58.75" y1="216.75" x2="97.1" y2="178.39"/>
  <path class="cls-1" d="M215.95,104.34c1.71,1.71,4.61.85,5.15-1.51,2.98-13.1-.63-27.4-10.84-37.6-10.2-10.2-24.5-13.81-37.6-10.84-2.35.53-3.21,3.44-1.51,5.15l44.8,44.8Z"/>
</svg>